<svg width="167" height="102" viewBox="0 0 167 102" fill="none" xmlns="http://www.w3.org/2000/svg">
    <g clip-path="url(#clip0_679_35)">
        <path fill-rule="evenodd" clip-rule="evenodd"
            d="M46 85H129C132.866 85 136 81.866 136 78C136 74.134 132.866 71 129 71C129 71 123 67.866 123 64C123 60.134 126.952 57 131.826 57H142C145.866 57 149 53.866 149 50C149 46.134 145.866 43 142 43H120C123.866 43 127 39.866 127 36C127 32.134 123.866 29 120 29H160C163.866 29 167 25.866 167 22C167 18.134 163.866 15 160 15H62C58.134 15 55 18.134 55 22C55 25.866 58.134 29 62 29H22C18.134 29 15 32.134 15 36C15 39.866 18.134 43 22 43H47C50.866 43 54 46.134 54 50C54 53.866 50.866 57 47 57H7C3.13401 57 0 60.134 0 64C0 67.866 3.13401 71 7 71H46C42.134 71 39 74.134 39 78C39 81.866 42.134 85 46 85ZM153 50C153 53.866 156.134 57 160 57C163.866 57 167 53.866 167 50C167 46.134 163.866 43 160 43C156.134 43 153 46.134 153 50Z"
            fill="#E0E0E0" />
        <path fill-rule="evenodd" clip-rule="evenodd"
            d="M106.672 14L115.974 81.8428L116.809 88.6491C117.079 90.8418 115.519 92.8375 113.327 93.1067L54.7666 100.297C52.5739 100.566 50.5781 99.007 50.3089 96.8143L41.2932 23.3868C41.1585 22.2905 41.9382 21.2926 43.0345 21.158C43.0414 21.1571 43.0484 21.1563 43.0553 21.1555L47.9137 20.6105"
            fill="white" />
        <path
            d="M107.91 13.8302C107.816 13.1462 107.186 12.6678 106.502 12.7615C105.818 12.8553 105.34 13.4858 105.433 14.1697L107.91 13.8302ZM115.974 81.8427L117.214 81.6903L117.213 81.6816L117.212 81.6729L115.974 81.8427ZM48.0529 21.8527C48.739 21.7757 49.2327 21.1572 49.1558 20.4711C49.0788 19.7851 48.4603 19.2913 47.7742 19.3682L48.0529 21.8527ZM51.7028 18.9276C51.0167 19.0045 50.5229 19.6231 50.5999 20.3091C50.6768 20.9952 51.2954 21.4889 51.9814 21.412L51.7028 18.9276ZM56.5685 20.8974C57.2545 20.8205 57.7483 20.2019 57.6714 19.5159C57.5944 18.8298 56.9759 18.3361 56.2898 18.413L56.5685 20.8974ZM105.433 14.1697L114.735 82.0125L117.212 81.6729L107.91 13.8302L105.433 14.1697ZM114.733 81.995L115.569 88.8013L118.05 88.4967L117.214 81.6903L114.733 81.995ZM115.569 88.8013C115.754 90.3088 114.682 91.6809 113.174 91.866L113.479 94.3473C116.357 93.994 118.403 91.3745 118.05 88.4967L115.569 88.8013ZM113.174 91.866L54.6141 99.0563L54.9188 101.538L113.479 94.3473L113.174 91.866ZM54.6141 99.0563C53.1067 99.2414 51.7346 98.1694 51.5495 96.6619L49.0681 96.9666C49.4215 99.8445 52.0409 101.891 54.9188 101.538L54.6141 99.0563ZM51.5495 96.6619L42.5337 23.2344L40.0524 23.539L49.0681 96.9666L51.5495 96.6619ZM42.5337 23.2344C42.4833 22.8232 42.7756 22.449 43.1867 22.3986L42.8821 19.9172C41.1005 20.1359 39.8336 21.7575 40.0524 23.539L42.5337 23.2344ZM43.1867 22.3986C43.1893 22.3982 43.1919 22.3979 43.1945 22.3976L42.9159 19.9132C42.9046 19.9145 42.8933 19.9158 42.8821 19.9172L43.1867 22.3986ZM43.1945 22.3976L48.0529 21.8527L47.7742 19.3682L42.9159 19.9132L43.1945 22.3976ZM51.9814 21.412L56.5685 20.8974L56.2898 18.413L51.7028 18.9276L51.9814 21.412Z"
            fill="#757575" />
        <path fill-rule="evenodd" clip-rule="evenodd"
            d="M104.14 18.2693L112.56 79.753L113.317 85.9213C113.561 87.9084 112.167 89.7147 110.203 89.9558L57.7612 96.3949C55.7976 96.636 54.008 95.2205 53.764 93.2334L45.614 26.8569C45.4794 25.7606 46.259 24.7627 47.3554 24.6281L53.843 23.8315"
            fill="#2E8896" />
        <path
            d="M63.6719 1.25H109.229C109.958 1.25 110.657 1.5395 111.173 2.05485L124.616 15.4898C125.132 16.0056 125.422 16.7053 125.422 17.4349V80C125.422 81.5188 124.191 82.75 122.672 82.75H63.6719C62.1531 82.75 60.9219 81.5188 60.9219 80V4C60.9219 2.48122 62.1531 1.25 63.6719 1.25Z"
            fill="white" stroke="#757575" stroke-width="2.5" />
        <path d="M109.672 2.40283V14C109.672 15.6569 111.015 17 112.672 17H120.605" stroke="#757575" stroke-width="2.5"
            stroke-linecap="round" stroke-linejoin="round" />
        <path d="M87.3549 30.5646L85.7931 29L75.6599 39.1511L77.2217 40.7156L87.3549 30.5646Z" fill="#2E8896" />
        <path d="M85.7932 40.7156L87.355 39.151L77.2218 29L75.6599 30.5646L85.7932 40.7156Z" fill="#2E8896" />
        <path d="M111 30.5646L109.438 29L99.3049 39.151L100.867 40.7156L111 30.5646Z" fill="#2E8896" />
        <path d="M109.438 40.7158L111 39.1512L100.867 29.0002L99.3049 30.5648L109.438 40.7158Z" fill="#2E8896" />
        <path
            d="M82.6607 58.4558L81 57.0222C81.1819 56.8358 85.5487 52.4558 93.747 52.4558C101.993 52.4558 105.84 56.89 106 57.0787L104.234 58.3965C104.102 58.2442 100.853 54.5739 93.747 54.5739C86.584 54.5741 82.699 58.4166 82.6607 58.4558Z"
            fill="#2E8896" />
    </g>
    <defs>
        <clipPath id="clip0_679_35">
            <rect width="167" height="102" fill="white" />
        </clipPath>
    </defs>
</svg>